<svg xmlns="http://www.w3.org/2000/svg" id="AddSquare" viewBox="0 0 32 32">
  <path d="M17.9,30h-3.8c-8.6,0-12.1-3.51-12.1-12.1v-3.8C2,5.51,5.51,2,14.1,2h3.8c8.6,0,12.1,3.51,12.1,12.1v3.8c0,8.6-3.51,12.1-12.1,12.1ZM14.1,4c-7.46,0-10.1,2.64-10.1,10.1v3.8c0,7.46,2.64,10.1,10.1,10.1h3.8c7.46,0,10.1-2.64,10.1-10.1v-3.8c0-7.46-2.64-10.1-10.1-10.1h-3.8Z" fill="#3c79b9" class="color242424 svgShape"></path>
  <path d="M20.24,17h-8.48c-.55,0-1-.45-1-1s.45-1,1-1h8.48c.55,0,1,.45,1,1s-.45,1-1,1Z" fill="#3c79b9" class="color242424 svgShape"></path>
  <path d="M16,21.24c-.55,0-1-.45-1-1v-8.48c0-.55.45-1,1-1s1,.45,1,1v8.48c0,.55-.45,1-1,1Z" fill="#3c79b9" class="color242424 svgShape"></path>
</svg>
