<svg xmlns="http://www.w3.org/2000/svg" viewBox="0 0 64 64" id="cupboard">
  <path d="M55.1 0H8.9C6.79 0 5.07 1.72 5.07 3.83v.35c0 2.03 1.59 3.67 3.58 3.81v49.92c0 .79.64 1.43 1.43 1.43h.58v3.23c0 .79.64 1.43 1.43 1.43h3.21c.56 0 1.06-.32 1.3-.83l1.78-3.83h27.39l1.78 3.83c.24.51.74.83 1.3.83h3.21c.79 0 1.43-.64 1.43-1.43v-3.23h.43c.79 0 1.43-.64 1.43-1.43V7.98c1.99-.13 3.58-1.78 3.58-3.81v-.34C58.93 1.72 57.21 0 55.1 0zM14.39 61.13h-.86v-1.79h1.69l-.83 1.79zm16.18-4.66H11.51V50.5h19.05v5.97zm0-8.83H11.51V8.01h19.05v39.63zm20.05 13.49h-.86l-.83-1.79h1.69v1.79zm1.87-4.66H33.43V50.5h19.05v5.97zm0-8.83H33.43V8.01h19.05v39.63zm3.57-43.46c0 .53-.43.97-.97.97H8.9a.97.97 0 0 1-.97-.97v-.35c0-.53.43-.97.97-.97h46.2c.53 0 .97.43.97.97v.35z"></path>
  <path d="M27.82 31.72c.79 0 1.43-.64 1.43-1.43v-5.82a1.43 1.43 0 1 0-2.86 0v5.82c0 .79.64 1.43 1.43 1.43zm8.43.45c.79 0 1.43-.64 1.43-1.43v-5.82a1.43 1.43 0 1 0-2.86 0v5.82c0 .78.64 1.43 1.43 1.43zM18.3 54.81h4.81a1.43 1.43 0 1 0 0-2.86H18.3a1.43 1.43 0 1 0 0 2.86zm22.65 0h4.81a1.43 1.43 0 1 0 0-2.86h-4.81c-.79 0-1.43.64-1.43 1.43-.01.79.64 1.43 1.43 1.43z"></path>
</svg>
