<svg xmlns="http://www.w3.org/2000/svg" enable-background="new 0 0 66 66" viewBox="0 0 66 66" id="closet">
  <path d="M18 22.75c-.41 0-.75.34-.75.75v12c0 .41.34.75.75.75s.75-.34.75-.75v-12C18.75 23.09 18.41 22.75 18 22.75zM30 13.25c.41 0 .75-.34.75-.75 0-.69.56-1.25 1.25-1.25s1.25.56 1.25 1.25-.56 1.25-1.25 1.25c-.41 0-.75.34-.75.75v1.51l-6.54 2.8c-.28.12-.46.39-.46.69v2c0 .41.34.75.75.75h14c.41 0 .75-.34.75-.75v-2c0-.3-.18-.57-.45-.69L32.75 16v-.86c1.15-.33 2-1.39 2-2.65 0-1.52-1.23-2.75-2.75-2.75s-2.75 1.23-2.75 2.75C29.25 12.91 29.59 13.25 30 13.25zM38.25 20.75h-12.5v-.76l6.26-2.68 6.24 2.68V20.75z"></path>
  <path d="M64,34.75H42.75V6.5c0-0.41-0.34-0.75-0.75-0.75H22H2c-0.41,0-0.75,0.34-0.75,0.75v53c0,0.41,0.34,0.75,0.75,0.75h5c0.32,0,0.61-0.21,0.71-0.51l0.83-2.49h26.92l0.83,2.49c0.1,0.31,0.39,0.51,0.71,0.51h5c0.41,0,0.75-0.34,0.75-0.75V42.25H64c0.41,0,0.75-0.34,0.75-0.75v-6C64.75,35.09,64.41,34.75,64,34.75z M2.75,55.75v-2.5H22h19.25v2.5H2.75z M41.25,41.5v4.25h-18.5v-4.5h18.5V41.5z M22.75,47.25h18.5v4.5h-18.5V47.25z M41.25,11.75H37.5c-0.41,0-0.75,0.34-0.75,0.75s0.34,0.75,0.75,0.75h3.75V35.5v4.25h-18.5v-26.5H27c0.41,0,0.75-0.34,0.75-0.75s-0.34-0.75-0.75-0.75h-4.25v-4.5h18.5V11.75z M2.75,7.25h18.5V40.5v6v5.25H2.75V7.25z M6.46,58.75H2.75v-1.5h4.21L6.46,58.75z M41.25,58.75h-3.71l-0.5-1.5h4.21V58.75z M42.75,40.5v-4.25h9.5v4.5h-9.5V40.5z M63.25,40.75h-9.5v-4.5h9.5V40.75z"></path>
  <path d="M46.71 32.19c.09.04.19.06.29.06h14c.1 0 .19-.02.29-.06.18-.08.33-.22.41-.41.04-.09.06-.19.06-.29v-16c0-.1-.02-.19-.06-.29-.08-.18-.22-.33-.41-.41-.09-.04-.19-.06-.29-.06H47c-.1 0-.19.02-.29.06-.18.08-.33.22-.41.41-.04.09-.06.19-.06.29v16c0 .1.02.19.06.29C46.38 31.97 46.53 32.12 46.71 32.19zM57.25 27.75h-6.5v-8.5h6.5V27.75zM50.31 29.25h7.38l1.5 1.5H48.81L50.31 29.25zM58.75 28.19v-9.38l1.5-1.5v12.38L58.75 28.19zM57.69 17.75h-7.38l-1.5-1.5h10.38L57.69 17.75zM49.25 18.81v9.38l-1.5 1.5V17.31L49.25 18.81zM61 44.75H47c-.41 0-.75.34-.75.75v14c0 .41.34.75.75.75h14c.41 0 .75-.34.75-.75v-14C61.75 45.09 61.41 44.75 61 44.75zM60.25 58.75h-12.5v-12.5h12.5V58.75z"></path>
</svg>
